<svg id="Layer_1" data-name="Layer 1" xmlns="http://www.w3.org/2000/svg" xmlns:xlink="http://www.w3.org/1999/xlink" viewBox="0 0 103.25 76.19"><defs><style>.cls-1{fill:none;}.cls-2{clip-path:url(#clip-path);}.cls-3{fill:#70738c;}.cls-4{fill:url(#linear-gradient);}.cls-5{fill:url(#linear-gradient-2);}.cls-6{fill:url(#linear-gradient-3);}.cls-7{fill:url(#linear-gradient-4);}.cls-8{fill:url(#linear-gradient-5);}.cls-9{fill:url(#linear-gradient-6);}.cls-10{fill:#bcbec9;}</style><clipPath id="clip-path" transform="translate(-6 -16.57)"><rect class="cls-1" width="109" height="109"/></clipPath><linearGradient id="linear-gradient" x1="122.95" y1="4.21" x2="-14.59" y2="86.03" gradientTransform="matrix(1, 0, 0, -1, 0, 110)" gradientUnits="userSpaceOnUse"><stop offset="0" stop-color="#70738c"/><stop offset="1" stop-color="#fefeff"/></linearGradient><linearGradient id="linear-gradient-2" x1="110.16" y1="-17.3" x2="-27.39" y2="64.52" xlink:href="#linear-gradient"/><linearGradient id="linear-gradient-3" x1="119.87" y1="-0.97" x2="-17.68" y2="80.84" xlink:href="#linear-gradient"/><linearGradient id="linear-gradient-4" x1="113.79" y1="-11.2" x2="-23.76" y2="70.62" xlink:href="#linear-gradient"/><linearGradient id="linear-gradient-5" x1="135.4" y1="25.12" x2="-2.15" y2="106.94" xlink:href="#linear-gradient"/><linearGradient id="linear-gradient-6" x1="132.18" y1="19.72" x2="-5.37" y2="101.54" xlink:href="#linear-gradient"/></defs><g class="cls-2"><rect class="cls-3" x="14.76" y="20.11" width="9.84" height="22.63"/><path class="cls-4" d="M17.69,64.14H34.4v-32H17.69Zm5.85-25.25h5a.84.84,0,0,1,0,1.68h-5a.84.84,0,0,1,0-1.68Zm0,8.41h5a.85.85,0,0,1,0,1.69h-5a.85.85,0,0,1,0-1.69Zm0,8.42h5a.84.84,0,0,1,0,1.68h-5a.84.84,0,0,1,0-1.68Z" transform="translate(-6 -16.57)"/><path class="cls-5" d="M21.19,65.82l4.26,24.29a3.16,3.16,0,0,0,3.12,2.65h3.55a3.14,3.14,0,0,0,2.43-1.15,3.2,3.2,0,0,0,.7-2.61L31.19,65.82Z" transform="translate(-6 -16.57)"/><path class="cls-6" d="M6,40.57V54a5,5,0,0,0,5,5.05h5V35.52H11A5,5,0,0,0,6,40.57Z" transform="translate(-6 -16.57)"/><path class="cls-7" d="M36.9,77.61a2.53,2.53,0,0,0,0-5H34.06l.89,5Z" transform="translate(-6 -16.57)"/><path class="cls-8" d="M73.65,17a4.2,4.2,0,0,0-4.18,4.21V75.08a4.18,4.18,0,1,0,8.35,0V21.21A4.2,4.2,0,0,0,73.65,17Z" transform="translate(-6 -16.57)"/><path class="cls-9" d="M36.07,62.7,67.8,73.89V22.39L36.07,33.59Z" transform="translate(-6 -16.57)"/><rect class="cls-10" x="86.41" y="22.5" width="24.19" height="1" transform="translate(-4.43 35.33) rotate(-29.74)"/><rect class="cls-10" x="98" y="56.65" width="1" height="23.71" transform="translate(-13.88 107.4) rotate(-62.35)"/><rect class="cls-10" x="82" y="29.93" width="15" height="1"/></g></svg>