<svg id="Layer_1" data-name="Layer 1" xmlns="http://www.w3.org/2000/svg" viewBox="0 0 92 92"><defs><style>.cls-1{fill:#fff;}.cls-2{fill:#8a8daf;}</style></defs><path class="cls-1" d="M77.79,11.17H74.62v3.17h3.17Z" transform="translate(-8 -8)"/><path class="cls-1" d="M84.14,11.17H81v3.17h3.18Z" transform="translate(-8 -8)"/><path class="cls-1" d="M90.48,11.17H87.31v3.17h3.17Z" transform="translate(-8 -8)"/><path class="cls-2" d="M78.84,57.24a11.12,11.12,0,0,1,2.44,2l8.36-10H85.51Z" transform="translate(-8 -8)"/><circle class="cls-1" cx="65" cy="59" r="7"/><path class="cls-2" d="M73,58.76A7.93,7.93,0,1,0,81,66.69,7.94,7.94,0,0,0,73,58.76ZM71.45,72.11l-4.3-4.3,2.25-2.24,2,2.05,5.22-5.22,2.24,2.24Z" transform="translate(-8 -8)"/><path class="cls-2" d="M62.73,51.59a26.17,26.17,0,0,1-2.45,2l4.58,5.6a11.28,11.28,0,0,1,2.45-2Z" transform="translate(-8 -8)"/><path class="cls-1" d="M46.07,17.52H42.9V42.9h3.17Z" transform="translate(-8 -8)"/><path class="cls-1" d="M58.76,23.86H55.59v19h3.17Z" transform="translate(-8 -8)"/><path class="cls-2" d="M30.21,77.61V96.83a3.17,3.17,0,0,0,6.34,0V77.61a28,28,0,0,1-6.34,0Z" transform="translate(-8 -8)"/><path class="cls-2" d="M33.38,69.86A20.62,20.62,0,0,1,17.83,35.7a28,28,0,0,1-.31-3.91c0-.82.05-1.64.12-2.45A25.37,25.37,0,0,0,33.38,74.62,25.21,25.21,0,0,0,58.07,55.05a27.28,27.28,0,0,1-5.85,2.55A20.6,20.6,0,0,1,33.38,69.86Z" transform="translate(-8 -8)"/><path class="cls-1" d="M33.38,30.21H30.21V42.9h3.17Z" transform="translate(-8 -8)"/><path class="cls-2" d="M44.48,55.59a23.8,23.8,0,1,0-23.79-23.8A23.83,23.83,0,0,0,44.48,55.59ZM27,27h9.51V42.9h3.18V14.34h9.51V42.9h3.17V20.69h9.52V46.07H27Z" transform="translate(-8 -8)"/><circle class="cls-1" cx="81" cy="27" r="5"/><path class="cls-2" d="M100,36.55V33.38H96.8L95.61,30.5l2.26-2.26L95.63,26l-2.27,2.27-2.88-1.2v-3.2H87.31v3.2l-2.88,1.2L82.17,26l-2.25,2.25,2.27,2.26L81,33.38h-3.2v3.17H81l1.19,2.88-2.27,2.26,2.25,2.25,2.27-2.27,2.87,1.2v3.2h3.17v-3.2l2.88-1.2,2.27,2.27,2.24-2.25-2.26-2.26,1.19-2.88ZM88.9,38.14A3.18,3.18,0,1,1,92.07,35,3.19,3.19,0,0,1,88.9,38.14Z" transform="translate(-8 -8)"/></svg>