<svg id="Layer_1" data-name="Layer 1" xmlns="http://www.w3.org/2000/svg" viewBox="0 0 88 93.44"><defs><style>.cls-1{fill:#fff;}.cls-2{fill:#888bad;}</style></defs><path class="cls-1" d="M55.87,39.26a2.05,2.05,0,0,0-.49-.06,1.92,1.92,0,0,0-1.51.73,1.89,1.89,0,0,0-.32.67,1.81,1.81,0,0,0,0,.73,1.88,1.88,0,0,0,.24.7,1.8,1.8,0,0,0,1.14.88,1.89,1.89,0,0,0,2-.67,1.91,1.91,0,0,0,.13-2.1,1.94,1.94,0,0,0-.48-.55A1.71,1.71,0,0,0,55.87,39.26Z" transform="translate(-11 -8)"/><path class="cls-1" d="M49.94,45.88a1.93,1.93,0,0,0-1.9,0,2.07,2.07,0,0,0-.69.69,1.84,1.84,0,0,0-.25,1.07,1.81,1.81,0,0,0,.39,1,1.85,1.85,0,0,0,.89.64,1.88,1.88,0,0,0,1.1,0A1.93,1.93,0,0,0,50.82,47,2,2,0,0,0,49.94,45.88Z" transform="translate(-11 -8)"/><path class="cls-1" d="M44.78,56.28a1.86,1.86,0,0,0,.32,1A1.82,1.82,0,0,0,46,58a1.84,1.84,0,0,0,1.09.11,2,2,0,0,0,1-.51,2,2,0,0,0,.52-1,1.93,1.93,0,0,0-.11-1.09,1.81,1.81,0,0,0-.69-.85,1.88,1.88,0,0,0-1-.32,1.89,1.89,0,0,0-1.9,1.88Z" transform="translate(-11 -8)"/><path class="cls-1" d="M48.11,63.39a1.89,1.89,0,0,0-.7,2.59,2,2,0,0,0,1.15.88,1.91,1.91,0,0,0,.92,0,1.94,1.94,0,0,0,.82-.42,2,2,0,0,0,.52-.76,1.87,1.87,0,0,0-.23-1.77,1.82,1.82,0,0,0-.7-.59,1.88,1.88,0,0,0-.9-.2A1.94,1.94,0,0,0,48.11,63.39Z" transform="translate(-11 -8)"/><path class="cls-1" d="M56.43,69.78a1.82,1.82,0,0,0-.94-.26,1.88,1.88,0,0,0-1.89,1.89,1.87,1.87,0,0,0,.24,1,1.91,1.91,0,0,0,1.64,1,1.88,1.88,0,0,0,1-.25,1.76,1.76,0,0,0,.69-.69,1.89,1.89,0,0,0,.26-1,1.82,1.82,0,0,0-.26-.94,1.85,1.85,0,0,0-.69-.7Z" transform="translate(-11 -8)"/><path class="cls-1" d="M62.36,73.73a1.86,1.86,0,0,0,.32,1,1.94,1.94,0,0,0,.85.7,1.84,1.84,0,0,0,1.09.1,1.9,1.9,0,0,0,1-.51,2,2,0,0,0,.51-1A1.84,1.84,0,0,0,66,73a1.88,1.88,0,0,0-.7-.85,1.86,1.86,0,0,0-1-.32,1.88,1.88,0,0,0-1.89,1.89Z" transform="translate(-11 -8)"/><path class="cls-1" d="M83.29,56.34A19.29,19.29,0,0,0,64,37.06V56.32l9.91,16.57a19.27,19.27,0,0,0,9.37-16.55Z" transform="translate(-11 -8)"/><path class="cls-2" d="M92,35.33l-.38-.48,2.56-2.56a3.17,3.17,0,0,0,0-4.51l-1.62-1.63a3.21,3.21,0,0,0-4.52,0L85.48,28.7a34.84,34.84,0,0,0-17.43-7.13V17.4h7.24a1.19,1.19,0,0,0,.13-.25,9.08,9.08,0,0,0,1.1-4.42,9.15,9.15,0,0,0-1.1-4.43,2.28,2.28,0,0,0-.17-.3H52.72a2.38,2.38,0,0,0-.18.3,9.25,9.25,0,0,0-1.09,4.43,9.19,9.19,0,0,0,1.09,4.42,2,2,0,0,0,.14.25h7.24v4.17a34.88,34.88,0,0,0-18.34,7.87A36.31,36.31,0,0,0,36,35.33a34.47,34.47,0,0,0-4.59,8.21l.84.33a19.25,19.25,0,0,1,6.24,3.58A27,27,0,1,1,65.6,83.31c-.55,0-1.08,0-1.62,0s-1.07,0-1.61,0a25.92,25.92,0,0,1-3.51-.45l7.91,8.38A35,35,0,0,0,92,35.33Z" transform="translate(-11 -8)"/><path class="cls-2" d="M40.29,68.6A15.79,15.79,0,0,0,21.7,47l-.29.08,9.23,9.75L30,59.88l-2.87,2.71-2.87,2.72-3.11.48L11.9,56l-.09.28A15.78,15.78,0,0,0,32.38,76.07a6.36,6.36,0,0,0,.6.77l23.24,24.6L59,98.85,43.56,82.54a2.26,2.26,0,0,1,.17-.35,4.29,4.29,0,0,1,.86-1.13h0a4.42,4.42,0,0,1,1.17-.8l.37-.15L61.52,96.42l2.73-2.58L41,69.24A5.49,5.49,0,0,0,40.29,68.6Z" transform="translate(-11 -8)"/></svg>