<svg id="Layer_1" data-name="Layer 1" xmlns="http://www.w3.org/2000/svg" viewBox="0 0 90.01 92.45"><defs><style>.cls-1{fill:#8a8daf;fill-rule:evenodd;}.cls-2{fill:#fff;}</style></defs><path class="cls-1" d="M78.47,90.18a10.27,10.27,0,1,0,12.89-9.93V67.38h-35V65.1h2.87V58.77a23.37,23.37,0,0,0,5.55-2.3L69.23,61l8.42-8.42-4.47-4.48a22.8,22.8,0,0,0,2.3-5.55H81.8V30.6H75.48a22.42,22.42,0,0,0-2.3-5.55l4.47-4.48-8.42-8.42-4.47,4.48a22.57,22.57,0,0,0-5.55-2.3V8H47.3v6.33a22.74,22.74,0,0,0-5.55,2.3l-4.47-4.48-8.42,8.42,4.48,4.48A22.42,22.42,0,0,0,31,30.6H24.71V42.5H31a22.42,22.42,0,0,0,2.3,5.55l-4.48,4.48L37.28,61l4.47-4.48a23.13,23.13,0,0,0,5.55,2.3V65.1H51v2.28H16.6V80.26a10.27,10.27,0,1,0,5.34,0V72.71H51v7.65a10.27,10.27,0,1,0,5.33-.18V72.71H86v7.56A10.29,10.29,0,0,0,78.47,90.18ZM53.26,26.69a9.86,9.86,0,1,1-9.86,9.86A9.85,9.85,0,0,1,53.26,26.69Zm0-4.84a14.7,14.7,0,1,1-14.7,14.7A14.69,14.69,0,0,1,53.26,21.85Z" transform="translate(-9 -8)"/><circle class="cls-2" cx="44" cy="28" r="11"/><circle class="cls-2" cx="10" cy="82" r="5"/><circle class="cls-2" cx="45" cy="82" r="5"/><circle class="cls-2" cx="80" cy="82" r="5"/></svg>