<svg id="Layer_1" data-name="Layer 1" xmlns="http://www.w3.org/2000/svg" viewBox="0 0 90.62 92.95"><defs><style>.cls-1{fill:#fff;}.cls-2{fill:#888bad;}</style></defs><path class="cls-1" d="M47.87,26.8a25,25,0,1,0,25,25.11A25,25,0,0,0,47.87,26.8Zm0,23.62a6.7,6.7,0,0,1,6.73,6.73,6.6,6.6,0,0,1-5.23,6.57v1.8a1.5,1.5,0,0,1-3,0v-1.8a6.86,6.86,0,0,1-5.24-6.57,1.5,1.5,0,1,1,3,0,3.74,3.74,0,1,0,3.74-3.74,6.7,6.7,0,0,1-6.73-6.73,6.63,6.63,0,0,1,5.24-6.58V38.31a1.5,1.5,0,1,1,3,0V40.1a6.87,6.87,0,0,1,5.23,6.58,1.5,1.5,0,1,1-3,0,3.74,3.74,0,1,0-7.48,0A3.8,3.8,0,0,0,47.87,50.42Z" transform="translate(-9 -8)"/><path class="cls-2" d="M99,13.79,91.23,8.26a1.59,1.59,0,0,0-2.1.3,1.6,1.6,0,0,0,.3,2.09l5.08,3.59L77,18.28a1.58,1.58,0,0,0-1,.89l-3.59,9.72c-.3-.3-.45-.6-.75-.75A33.61,33.61,0,0,0,21.71,73L10.49,83.61a1.32,1.32,0,0,0-.44.9L9,99.31A1.76,1.76,0,0,0,10.35,101h.14A1.48,1.48,0,0,0,12,99.61L13,85.4,23.8,75.24A32.94,32.94,0,0,0,47.87,85.4,33.68,33.68,0,0,0,81.51,51.77a33,33,0,0,0-6.88-20.34L78.52,21l16.14-3.59-3.28,4.49A1.61,1.61,0,0,0,91.67,24a1.59,1.59,0,0,0,2.1-.3l5.53-7.77A1.47,1.47,0,0,0,99,13.79ZM69.55,73.44a30.6,30.6,0,1,1,.15-43.35A30.5,30.5,0,0,1,69.55,73.44Z" transform="translate(-9 -8)"/><path class="cls-2" d="M77.92,72.7A38.21,38.21,0,0,1,67.6,82.56l12,14.06a7.11,7.11,0,0,0,10,.74,7,7,0,0,0,.75-10Z" transform="translate(-9 -8)"/></svg>