<svg width="630" height="543" viewBox="0 0 630 543" fill="none" xmlns="http://www.w3.org/2000/svg">
<g filter="url(#filter0_f)">
<circle cx="143.213" cy="354.213" r="3.34576" fill="#00F9FF"/>
</g>
<circle cx="143.213" cy="354.213" r="3.34576" fill="#00F9FF"/>
<g filter="url(#filter1_f)">
<circle cx="143.214" cy="354.214" r="6.21355" fill="#00F9FF"/>
</g>
<g filter="url(#filter2_f)">
<circle cx="143.213" cy="354.213" r="3.34576" fill="#00F9FF"/>
</g>
<g filter="url(#filter3_f)">
<ellipse cx="337.5" cy="492" rx="262.5" ry="21" fill="url(#paint0_radial)"/>
</g>
<g filter="url(#filter4_f)">
<path d="M464 491.5C464 495.09 412.513 498 349 498C285.487 498 234 495.09 234 491.5C234 487.91 285.487 485 349 485C412.513 485 464 487.91 464 491.5Z" fill="url(#paint1_radial)" fill-opacity="0.5"/>
</g>
<g opacity="0.5" filter="url(#filter5_f)">
<path d="M51.9552 267.597C32.3505 202.08 44.8356 60.0915 251.613 16.2753C313.007 3.71569 456.224 5.63202 537.944 113.774C587.343 172.688 646.595 315.609 488.417 415.982C472.423 424.917 435.716 444.028 416.834 449" stroke="url(#paint2_linear)" stroke-opacity="0.5" stroke-linecap="round" stroke-linejoin="round"/>
</g>
<path opacity="0.2" d="M51.9552 267.597C32.3505 202.08 44.8356 60.0915 251.613 16.2753C313.007 3.71569 456.224 5.63202 537.944 113.774C587.343 172.688 646.595 315.609 488.417 415.982C472.423 424.917 435.716 444.028 416.834 449" stroke="url(#paint3_linear)" stroke-opacity="0.5" stroke-linecap="round" stroke-linejoin="round"/>
<g filter="url(#filter6_f)">
<circle cx="505.213" cy="244.214" r="3.34576" fill="#00F9FF"/>
</g>
<circle cx="505.213" cy="244.214" r="3.34576" fill="#00F9FF"/>
<g filter="url(#filter7_f)">
<circle cx="505.214" cy="244.214" r="6.21355" fill="#00F9FF"/>
</g>
<g filter="url(#filter8_f)">
<circle cx="505.213" cy="244.214" r="3.34576" fill="#00F9FF"/>
</g>
<g filter="url(#filter9_f)">
<circle cx="470.213" cy="293.214" r="3.34576" fill="#00F9FF"/>
</g>
<circle cx="470.213" cy="293.214" r="3.34576" fill="#00F9FF"/>
<g filter="url(#filter10_f)">
<circle cx="470.214" cy="293.214" r="6.21355" fill="#00F9FF"/>
</g>
<g filter="url(#filter11_f)">
<circle cx="470.213" cy="293.214" r="3.34576" fill="#00F9FF"/>
</g>
<circle cx="45.3892" cy="250.389" r="15.3892" fill="#00F9FF"/>
<g filter="url(#filter12_f)">
<circle cx="45.3892" cy="250.389" r="15.3892" fill="#00F9FF"/>
</g>
<g filter="url(#filter13_f)">
<circle cx="213.213" cy="443.214" r="3.34576" fill="#00F9FF"/>
</g>
<circle cx="213.213" cy="443.214" r="3.34576" fill="#00F9FF"/>
<g filter="url(#filter14_f)">
<circle cx="213.214" cy="443.214" r="6.21355" fill="#00F9FF"/>
</g>
<g filter="url(#filter15_f)">
<circle cx="213.213" cy="443.214" r="3.34576" fill="#00F9FF"/>
</g>
<g opacity="0.8" filter="url(#filter16_f)">
<path d="M544.6 423.501C542.4 417.601 538.2 413.401 534.1 409.301L533.7 408.901C520.5 395.701 507.4 382.601 494.2 369.401C471.7 346.901 448.5 323.701 425.6 300.901C424.6 299.901 424.5 299.501 424.5 299.501C424.5 299.501 424.5 299.101 425.3 298.001C443.1 274.801 454.1 248.501 457.9 219.901C461.3 194.601 459 169.801 451.1 146.401C440.9 116.301 423.5 91.0006 399.2 71.2006C374.8 51.3006 346.7 39.2006 315.7 35.2006C286.2 31.5006 257.5 35.5006 230.6 47.2006C197.6 61.5006 171.8 84.4006 153.7 115.201C134.1 148.901 127.1 185.201 133 223.101C139 261.801 156.8 294.501 185.8 320.201C224.9 354.801 270.9 368.201 322.7 360.001C349.1 355.801 373.5 345.101 395.2 328.201C396.2 327.401 396.6 327.401 396.6 327.401C396.6 327.401 397 327.501 398 328.501C428.3 358.901 459.1 389.701 488.9 419.501L502.3 432.901C503.1 433.701 504 434.601 504.8 435.401C509.1 439.801 513.5 444.401 519.5 447.301L520 447.601H529L529.4 447.501C536.2 445.301 541.3 440.601 544.5 433.401L544.7 432.901V423.901L544.6 423.501ZM420.6 198.401C419.8 268.601 365 323.401 295.7 323.401C295.5 323.401 295.3 323.401 295 323.401C226 323.001 170 266.801 170.2 198.101C170.3 164.501 183.6 132.901 207.6 109.201C231.2 85.9006 262.1 73.1006 294.7 73.1006C295 73.1006 295.3 73.1006 295.6 73.1006C365.2 73.6006 420.1 128.601 420.6 198.401Z" fill="url(#paint4_linear)"/>
</g>
<path d="M544.627 422.633C542.427 416.733 538.227 412.533 534.127 408.433L533.727 408.033C520.527 394.833 507.427 381.733 494.227 368.533C471.727 346.033 448.527 322.833 425.627 300.033C424.627 299.033 424.527 298.633 424.527 298.633C424.527 298.633 424.527 298.233 425.327 297.133C443.127 273.933 454.127 247.633 457.927 219.033C461.327 193.733 459.027 168.933 451.127 145.533C440.927 115.433 423.527 90.1334 399.227 70.3334C374.827 50.4334 346.727 38.3334 315.727 34.3334C286.227 30.6334 257.527 34.6334 230.627 46.3334C197.627 60.6334 171.827 83.5334 153.727 114.333C134.127 148.033 127.127 184.333 133.027 222.233C139.027 260.933 156.827 293.633 185.827 319.333C224.927 353.933 270.927 367.333 322.727 359.133C349.127 354.933 373.527 344.233 395.227 327.333C396.227 326.533 396.627 326.533 396.627 326.533C396.627 326.533 397.027 326.633 398.027 327.633C428.327 358.033 459.127 388.833 488.927 418.633L502.327 432.033C503.127 432.833 504.027 433.733 504.827 434.533C509.127 438.933 513.527 443.533 519.527 446.433L520.027 446.733H529.027L529.427 446.633C536.227 444.433 541.327 439.733 544.527 432.533L544.727 432.033V423.033L544.627 422.633ZM420.627 197.533C419.827 267.733 365.027 322.533 295.727 322.533C295.527 322.533 295.327 322.533 295.027 322.533C226.027 322.133 170.027 265.933 170.227 197.233C170.327 163.633 183.627 132.033 207.627 108.333C231.227 85.0334 262.127 72.2334 294.727 72.2334C295.027 72.2334 295.327 72.2334 295.627 72.2334C365.227 72.7334 420.127 127.733 420.627 197.533Z" fill="url(#paint5_linear)"/>
<g opacity="0.5" clip-path="url(#clip0)">
<path d="M341 232.896C340.691 228.877 340.426 224.858 338.924 221.06C338.836 220.618 338.792 220.176 338.615 219.779C335.348 210.637 329.873 203.129 321.793 197.697C320.159 196.593 319.629 195.842 320.954 194.031C324.839 188.776 325.855 182.637 325.501 176.366C324.707 161.747 311.549 149.602 296.845 150C285.718 150.309 277.064 155.344 271.81 165.236C266.599 175.085 267.129 184.933 273.223 194.296C274.238 195.842 274.061 196.504 272.56 197.52C266.908 201.23 262.316 206 259.049 211.962C255.163 218.321 253.441 225.255 253 232.586C252.956 233.646 253.309 234 254.324 233.956C259.226 233.911 264.171 233.911 269.072 233.956C270.22 233.956 270.529 233.602 270.617 232.454C271.236 224.151 274.9 217.394 281.524 212.359C281.965 212.094 282.407 211.874 282.848 211.609C291.37 206.574 300.068 206 309.032 210.549C314.198 213.154 317.863 217.173 320.689 222.075C322.146 225.52 323.25 229.098 323.338 232.896C323.338 233.823 323.824 233.956 324.574 233.956C329.652 233.956 334.686 233.956 339.763 233.956C340.602 234 341.044 233.779 341 232.896ZM296.933 189.482C290.487 189.747 286.16 184.801 285.983 178.574C285.851 173.274 290.531 167.621 297.066 167.621C303.027 167.621 307.972 172.656 307.972 178.574C308.016 184.713 303.159 189.482 296.933 189.482Z" fill="url(#paint6_linear)"/>
</g>
<defs>
<filter id="filter0_f" x="99.8672" y="310.867" width="86.6915" height="86.6915" filterUnits="userSpaceOnUse" color-interpolation-filters="sRGB">
<feFlood flood-opacity="0" result="BackgroundImageFix"/>
<feBlend mode="normal" in="SourceGraphic" in2="BackgroundImageFix" result="shape"/>
<feGaussianBlur stdDeviation="20" result="effect1_foregroundBlur"/>
</filter>
<filter id="filter1_f" x="107" y="318" width="72.4271" height="72.4271" filterUnits="userSpaceOnUse" color-interpolation-filters="sRGB">
<feFlood flood-opacity="0" result="BackgroundImageFix"/>
<feBlend mode="normal" in="SourceGraphic" in2="BackgroundImageFix" result="shape"/>
<feGaussianBlur stdDeviation="15" result="effect1_foregroundBlur"/>
</filter>
<filter id="filter2_f" x="109.867" y="320.867" width="66.6915" height="66.6915" filterUnits="userSpaceOnUse" color-interpolation-filters="sRGB">
<feFlood flood-opacity="0" result="BackgroundImageFix"/>
<feBlend mode="normal" in="SourceGraphic" in2="BackgroundImageFix" result="shape"/>
<feGaussianBlur stdDeviation="15" result="effect1_foregroundBlur"/>
</filter>
<filter id="filter3_f" x="45" y="441" width="585" height="102" filterUnits="userSpaceOnUse" color-interpolation-filters="sRGB">
<feFlood flood-opacity="0" result="BackgroundImageFix"/>
<feBlend mode="normal" in="SourceGraphic" in2="BackgroundImageFix" result="shape"/>
<feGaussianBlur stdDeviation="15" result="effect1_foregroundBlur"/>
</filter>
<filter id="filter4_f" x="224" y="475" width="250" height="33" filterUnits="userSpaceOnUse" color-interpolation-filters="sRGB">
<feFlood flood-opacity="0" result="BackgroundImageFix"/>
<feBlend mode="normal" in="SourceGraphic" in2="BackgroundImageFix" result="shape"/>
<feGaussianBlur stdDeviation="5" result="effect1_foregroundBlur"/>
</filter>
<filter id="filter5_f" x="34.8398" y="0.5" width="566.724" height="459" filterUnits="userSpaceOnUse" color-interpolation-filters="sRGB">
<feFlood flood-opacity="0" result="BackgroundImageFix"/>
<feBlend mode="normal" in="SourceGraphic" in2="BackgroundImageFix" result="shape"/>
<feGaussianBlur stdDeviation="5" result="effect1_foregroundBlur"/>
</filter>
<filter id="filter6_f" x="461.867" y="200.868" width="86.6915" height="86.6915" filterUnits="userSpaceOnUse" color-interpolation-filters="sRGB">
<feFlood flood-opacity="0" result="BackgroundImageFix"/>
<feBlend mode="normal" in="SourceGraphic" in2="BackgroundImageFix" result="shape"/>
<feGaussianBlur stdDeviation="20" result="effect1_foregroundBlur"/>
</filter>
<filter id="filter7_f" x="469" y="208" width="72.4271" height="72.4271" filterUnits="userSpaceOnUse" color-interpolation-filters="sRGB">
<feFlood flood-opacity="0" result="BackgroundImageFix"/>
<feBlend mode="normal" in="SourceGraphic" in2="BackgroundImageFix" result="shape"/>
<feGaussianBlur stdDeviation="15" result="effect1_foregroundBlur"/>
</filter>
<filter id="filter8_f" x="471.867" y="210.868" width="66.6915" height="66.6915" filterUnits="userSpaceOnUse" color-interpolation-filters="sRGB">
<feFlood flood-opacity="0" result="BackgroundImageFix"/>
<feBlend mode="normal" in="SourceGraphic" in2="BackgroundImageFix" result="shape"/>
<feGaussianBlur stdDeviation="15" result="effect1_foregroundBlur"/>
</filter>
<filter id="filter9_f" x="426.867" y="249.868" width="86.6915" height="86.6915" filterUnits="userSpaceOnUse" color-interpolation-filters="sRGB">
<feFlood flood-opacity="0" result="BackgroundImageFix"/>
<feBlend mode="normal" in="SourceGraphic" in2="BackgroundImageFix" result="shape"/>
<feGaussianBlur stdDeviation="20" result="effect1_foregroundBlur"/>
</filter>
<filter id="filter10_f" x="434" y="257" width="72.4271" height="72.4271" filterUnits="userSpaceOnUse" color-interpolation-filters="sRGB">
<feFlood flood-opacity="0" result="BackgroundImageFix"/>
<feBlend mode="normal" in="SourceGraphic" in2="BackgroundImageFix" result="shape"/>
<feGaussianBlur stdDeviation="15" result="effect1_foregroundBlur"/>
</filter>
<filter id="filter11_f" x="436.867" y="259.868" width="66.6915" height="66.6915" filterUnits="userSpaceOnUse" color-interpolation-filters="sRGB">
<feFlood flood-opacity="0" result="BackgroundImageFix"/>
<feBlend mode="normal" in="SourceGraphic" in2="BackgroundImageFix" result="shape"/>
<feGaussianBlur stdDeviation="15" result="effect1_foregroundBlur"/>
</filter>
<filter id="filter12_f" x="0" y="205" width="90.7784" height="90.7784" filterUnits="userSpaceOnUse" color-interpolation-filters="sRGB">
<feFlood flood-opacity="0" result="BackgroundImageFix"/>
<feBlend mode="normal" in="SourceGraphic" in2="BackgroundImageFix" result="shape"/>
<feGaussianBlur stdDeviation="15" result="effect1_foregroundBlur"/>
</filter>
<filter id="filter13_f" x="169.867" y="399.868" width="86.6915" height="86.6915" filterUnits="userSpaceOnUse" color-interpolation-filters="sRGB">
<feFlood flood-opacity="0" result="BackgroundImageFix"/>
<feBlend mode="normal" in="SourceGraphic" in2="BackgroundImageFix" result="shape"/>
<feGaussianBlur stdDeviation="20" result="effect1_foregroundBlur"/>
</filter>
<filter id="filter14_f" x="177" y="407" width="72.4271" height="72.4271" filterUnits="userSpaceOnUse" color-interpolation-filters="sRGB">
<feFlood flood-opacity="0" result="BackgroundImageFix"/>
<feBlend mode="normal" in="SourceGraphic" in2="BackgroundImageFix" result="shape"/>
<feGaussianBlur stdDeviation="15" result="effect1_foregroundBlur"/>
</filter>
<filter id="filter15_f" x="179.867" y="409.868" width="66.6915" height="66.6915" filterUnits="userSpaceOnUse" color-interpolation-filters="sRGB">
<feFlood flood-opacity="0" result="BackgroundImageFix"/>
<feBlend mode="normal" in="SourceGraphic" in2="BackgroundImageFix" result="shape"/>
<feGaussianBlur stdDeviation="15" result="effect1_foregroundBlur"/>
</filter>
<filter id="filter16_f" x="110.973" y="13.8672" width="453.727" height="453.733" filterUnits="userSpaceOnUse" color-interpolation-filters="sRGB">
<feFlood flood-opacity="0" result="BackgroundImageFix"/>
<feBlend mode="normal" in="SourceGraphic" in2="BackgroundImageFix" result="shape"/>
<feGaussianBlur stdDeviation="10" result="effect1_foregroundBlur"/>
</filter>
<radialGradient id="paint0_radial" cx="0" cy="0" r="1" gradientUnits="userSpaceOnUse" gradientTransform="translate(337.5 492) rotate(90) scale(21 262.5)">
<stop stop-color="#D33A54"/>
<stop offset="0.942708" stop-color="#D33A54" stop-opacity="0"/>
</radialGradient>
<radialGradient id="paint1_radial" cx="0" cy="0" r="1" gradientUnits="userSpaceOnUse" gradientTransform="translate(219.625 491.5) rotate(90) scale(6.5 115)">
<stop stop-color="#D33A54"/>
<stop offset="0.942708" stop-color="#D33A54"/>
</radialGradient>
<linearGradient id="paint2_linear" x1="645.656" y1="366.452" x2="184.822" y2="96.9656" gradientUnits="userSpaceOnUse">
<stop offset="0.000320513" stop-color="#6DCCE3"/>
<stop offset="0.0303092" stop-color="#6FBEDB"/>
<stop offset="0.2061" stop-color="#7870B1"/>
<stop offset="0.2869" stop-color="#B45BFF"/>
<stop offset="0.453125" stop-color="#FF4AE2"/>
<stop offset="0.6457" stop-color="#D9234F" stop-opacity="0.5"/>
<stop offset="1" stop-color="#FF002C"/>
</linearGradient>
<linearGradient id="paint3_linear" x1="645.656" y1="366.452" x2="184.822" y2="96.9656" gradientUnits="userSpaceOnUse">
<stop offset="0.000320513" stop-color="#6DCCE3"/>
<stop offset="0.0303092" stop-color="#6FBEDB"/>
<stop offset="0.2061" stop-color="#7870B1"/>
<stop offset="0.2869" stop-color="#B45BFF"/>
<stop offset="0.453125" stop-color="#FF4AE2"/>
<stop offset="0.6457" stop-color="#D9234F" stop-opacity="0.5"/>
<stop offset="1" stop-color="#FF002C"/>
</linearGradient>
<linearGradient id="paint4_linear" x1="586.088" y1="369.626" x2="201.878" y2="189.301" gradientUnits="userSpaceOnUse">
<stop offset="0.000320513" stop-color="#6DCCE3"/>
<stop offset="0.0303092" stop-color="#6FBEDB"/>
<stop offset="0.2061" stop-color="#7870B1"/>
<stop offset="0.2869" stop-color="#7C51A0"/>
<stop offset="0.4016" stop-color="#964489"/>
<stop offset="0.6457" stop-color="#D9234F"/>
<stop offset="0.7112" stop-color="#EC1A3E"/>
<stop offset="1" stop-color="#F05B5B"/>
</linearGradient>
<linearGradient id="paint5_linear" x1="586.115" y1="368.759" x2="201.905" y2="188.434" gradientUnits="userSpaceOnUse">
<stop offset="0.000320513" stop-color="#6DCCE3"/>
<stop offset="0.0303092" stop-color="#6FBEDB"/>
<stop offset="0.2061" stop-color="#7870B1"/>
<stop offset="0.2869" stop-color="#7C51A0"/>
<stop offset="0.390625" stop-color="#964489"/>
<stop offset="0.552083" stop-color="#CD2F55"/>
<stop offset="0.838542" stop-color="#D33A54"/>
<stop offset="1" stop-color="#F05B5B"/>
</linearGradient>
<linearGradient id="paint6_linear" x1="349.807" y1="218.135" x2="269.506" y2="178.635" gradientUnits="userSpaceOnUse">
<stop offset="0.000320513" stop-color="#6DCCE3"/>
<stop offset="0.0303092" stop-color="#6FBEDB"/>
<stop offset="0.2061" stop-color="#7870B1"/>
<stop offset="0.2869" stop-color="#7C51A0"/>
<stop offset="0.390625" stop-color="#964489"/>
<stop offset="0.552083" stop-color="#CD2F55"/>
<stop offset="0.838542" stop-color="#D33A54"/>
<stop offset="1" stop-color="#F05B5B"/>
</linearGradient>
<clipPath id="clip0">
<rect width="88" height="84" fill="white" transform="translate(253 150)"/>
</clipPath>
</defs>
</svg>
