<svg width="22" height="14" viewBox="0 0 22 14" fill="none" xmlns="http://www.w3.org/2000/svg">
<path d="M11.3121 1.91251C14.8732 1.91251 18.049 3.88589 19.5994 7.0081C18.049 10.1303 14.8732 12.1037 11.3121 12.1037C7.75106 12.1037 4.57522 10.1303 3.02488 7.0081C4.57522 3.88589 7.75106 1.91251 11.3121 1.91251ZM11.3121 0.0595703C6.61415 0.0595703 2.60207 2.94089 0.976562 7.0081C2.60207 11.0753 6.61415 13.9566 11.3121 13.9566C16.0101 13.9566 20.0222 11.0753 21.6477 7.0081C20.0222 2.94089 16.0101 0.0595703 11.3121 0.0595703ZM11.3121 4.69192C12.6088 4.69192 13.6611 5.72957 13.6611 7.0081C13.6611 8.28663 12.6088 9.32428 11.3121 9.32428C10.0155 9.32428 8.96314 8.28663 8.96314 7.0081C8.96314 5.72957 10.0155 4.69192 11.3121 4.69192ZM11.3121 2.83898C8.98193 2.83898 7.08394 4.71045 7.08394 7.0081C7.08394 9.30575 8.98193 11.1772 11.3121 11.1772C13.6423 11.1772 15.5403 9.30575 15.5403 7.0081C15.5403 4.71045 13.6423 2.83898 11.3121 2.83898Z" fill="white"/>
</svg>
