<svg width="349" height="125" viewBox="0 0 349 125" fill="none" xmlns="http://www.w3.org/2000/svg">
<circle cx="28" cy="21" r="10" fill="url(#paint0_linear)"/>
<circle cx="5.5" cy="3.5" r="3.5" fill="white"/>
<circle cx="2.5" cy="45.5" r="2.5" fill="white"/>
<circle cx="69.5" cy="21.5" r="2.5" fill="white"/>
<circle cx="65.5" cy="69.5" r="2.5" fill="white"/>
<circle cx="241.5" cy="87.5" r="2.5" fill="white"/>
<circle cx="332.5" cy="69.5" r="2.5" fill="white"/>
<circle cx="120.5" cy="58.5" r="2.5" fill="white"/>
<circle cx="137.5" cy="87.5" r="2.5" fill="white"/>
<circle cx="156.5" cy="88.5" r="2.5" fill="white"/>
<circle cx="177.5" cy="84.5" r="2.5" fill="white"/>
<circle cx="22.5" cy="4.5" r="1.5" fill="white"/>
<circle cx="70.5" cy="88.5" r="1.5" fill="white"/>
<circle cx="17.5" cy="31.5" r="1.5" fill="white"/>
<circle cx="24.5" cy="43.5" r="1.5" fill="white"/>
<circle cx="39.5" cy="43.5" r="1.5" fill="white"/>
<circle cx="53.5" cy="38.5" r="1.5" fill="white"/>
<circle cx="63.5" cy="48.5" r="1.5" fill="white"/>
<circle cx="77.5" cy="69.5" r="1.5" fill="white"/>
<circle cx="111.5" cy="84.5" r="1.5" fill="white"/>
<circle cx="101.5" cy="95.5" r="1.5" fill="white"/>
<circle cx="89.5" cy="105.5" r="1.5" fill="white"/>
<circle cx="108.5" cy="112.5" r="1.5" fill="white"/>
<circle cx="122.5" cy="105.5" r="1.5" fill="white"/>
<circle cx="146.5" cy="105.5" r="1.5" fill="white"/>
<circle cx="156.5" cy="120.5" r="1.5" fill="white"/>
<circle cx="137.5" cy="123.5" r="1.5" fill="white"/>
<circle cx="179.5" cy="105.5" r="1.5" fill="white"/>
<circle cx="203.5" cy="87.5" r="1.5" fill="white"/>
<circle cx="212.5" cy="103.5" r="1.5" fill="white"/>
<circle cx="241.5" cy="115.5" r="1.5" fill="white"/>
<circle cx="264.5" cy="102.5" r="1.5" fill="white"/>
<circle cx="269.5" cy="84.5" r="1.5" fill="white"/>
<circle cx="292.5" cy="78.5" r="1.5" fill="white"/>
<circle cx="297.5" cy="99.5" r="1.5" fill="white"/>
<circle cx="320.5" cy="100.5" r="1.5" fill="white"/>
<circle cx="315.5" cy="83.5" r="1.5" fill="white"/>
<circle cx="347.5" cy="82.5" r="1.5" fill="white"/>
<circle cx="310.5" cy="67.5" r="1.5" fill="white"/>
<circle cx="203.5" cy="120.5" r="1.5" fill="white"/>
<circle cx="95.5" cy="74.5" r="1.5" fill="white"/>
<circle cx="72.5" cy="53.5" r="1.5" fill="white"/>
<circle cx="102" cy="59" r="1" fill="white"/>
<circle r="0.5" transform="matrix(-1 0 0 1 80.5 56.5)" fill="white"/>
<circle cx="84.5" cy="43.5" r="1.5" fill="white"/>
<circle cx="84.5" cy="43.5" r="1.5" fill="white"/>
<circle cx="34.5" cy="61.5" r="1.5" fill="white"/>
<defs>
<linearGradient id="paint0_linear" x1="24.1905" y1="5.99998" x2="59.3563" y2="17.2465" gradientUnits="userSpaceOnUse">
<stop offset="0.0395806" stop-color="white"/>
<stop offset="1" stop-color="#35D8FF"/>
</linearGradient>
</defs>
</svg>
