<svg width="1482" height="393" viewBox="0 0 1482 393" fill="none" xmlns="http://www.w3.org/2000/svg">
<path opacity="0.5" d="M1438.5 28.1304L1438.5 0L1422.4 6.36914L62.0292 6.36909L43 -4.24e-05L43 28.1303L1438.5 28.1304Z" fill="url(#paint0_linear)"/>
<path d="M1461.27 36.8799L1444 29.287L1444 7.05057L1482 25.4905L1482 118.775L1482 392.06L1477.16 387.178L1477.16 357.349L1461.27 349.756L1461.27 36.8799Z" fill="#65A3AE"/>
<path d="M1444 3.79646L1444 0L1482 3.32207e-06L1482 22.2364L1444 3.79646Z" fill="#65A3AE"/>
<path d="M21.2727 36.8799L39 29.287L39 7.05057L-2.22845e-06 25.4905L-3.42749e-05 392.06L4.9636 387.178L4.96361 357.349L21.2727 349.756L21.2727 36.8799Z" fill="#65A3AE"/>
<path d="M39 3.79646L39 0L0 -3.40949e-06L-1.94397e-06 22.2364L39 3.79646Z" fill="#65A3AE"/>
<defs>
<linearGradient id="paint0_linear" x1="458.078" y1="3.16501" x2="443.834" y2="82.2243" gradientUnits="userSpaceOnUse">
<stop stop-color="#518DA0"/>
<stop offset="0.536458" stop-color="#ACECFA"/>
<stop offset="1" stop-color="#518DA0"/>
</linearGradient>
</defs>
</svg>
